<svg xmlns="http://www.w3.org/2000/svg" width="75" height="82" viewBox="0 0 75 82">
    <g fill="#2B4162" fill-rule="evenodd">
        <g stroke="#2B4162">
            <path d="M44.425 54.853H2.237a1.209 1.209 0 0 1-1.208-1.209V37.326a4.992 4.992 0 0 1 4.986-4.989H54.98a4.993 4.993 0 0 1 4.989 4.989v3.56c0 .819-3.408 4.336-6.165 6.568-.754.61-3.19.938-5.043.642-1.853-.296-2.795-1.182-3.625-.412-1.74 1.613.563 7.169-.711 7.169zm-.126-2.417s-1.251-3.924.837-5.348 4.462 1.489 5.325 1.008c3.177-1.768 7.093-3.092 7.093-4.65v-6.12a2.575 2.575 0 0 0-2.571-2.572H6.017a2.575 2.575 0 0 0-2.569 2.572v15.11h40.851z"/>
            <path d="M49.258 74.685H6.018a4.992 4.992 0 0 1-4.987-4.988V53.378c0-.667.542-1.208 1.209-1.208h40.777c2.84 0 1.39 12.122 1.39 13.92 0 1.98 5.722 8.595 4.851 8.595zM3.446 54.587v15.11a2.575 2.575 0 0 0 2.569 2.572s26.164 0 39.43.318c1.26-.131-.178-2.917-.648-6.497-.47-3.58-.822-11.503-.822-11.503H3.445z"/>
            <path d="M10.03 80.757a1.21 1.21 0 0 1-1.117-1.67l2.513-6.072a1.21 1.21 0 0 1 2.233.923l-2.513 6.072a1.208 1.208 0 0 1-1.117.747zM50.968 80.757c-.473 0-.923-.28-1.116-.747l-2.511-6.071a1.208 1.208 0 0 1 2.233-.924l2.511 6.072a1.208 1.208 0 0 1-1.117 1.67zM33.325 42.292h-5.653a1.209 1.209 0 0 1 0-2.417h5.653a1.209 1.209 0 0 1 0 2.417zM33.325 62.125h-5.653a1.209 1.209 0 0 1 0-2.417h5.653a1.209 1.209 0 0 1 0 2.417zM32.313 34.754H16.24a1.209 1.209 0 0 1-1.208-1.208v-4.897c0-.667.541-1.208 1.208-1.208h16.073c.667 0 1.208.54 1.208 1.208v4.894c0 .67-.541 1.211-1.208 1.211zm-14.867-2.417h13.656v-2.48H17.446v2.48zM34.891 16.379H13.657a1.21 1.21 0 0 1-.977-.496 1.213 1.213 0 0 1-.174-1.08L16.654 1.84c.157-.5.623-.841 1.15-.841h12.94c.527 0 .991.34 1.153.841l4.147 12.962c.116.367.051.768-.174 1.08a1.221 1.221 0 0 1-.979.496zM15.31 13.962h17.926L29.862 3.417H18.686L15.31 13.962z"/>
            <path d="M24.274 29.34c-.667 0-1.208-.524-1.208-1.169v-13.04c0-.646.541-1.17 1.208-1.17.667 0 1.209.524 1.209 1.17v13.04c0 .648-.54 1.17-1.209 1.17zM30.5 20.526a1.209 1.209 0 0 1-1.208-1.209V15.17a1.209 1.209 0 0 1 2.416 0v4.147c0 .667-.54 1.209-1.208 1.209z"/>
        </g>
        <g fill-rule="nonzero">
            <path d="M64.852 49.51c.135-.443 1.031-.727 1.031-1.918 0-1.191-1.029-1.391-1.166-1.466-.825-.448-1.417-.955-1.848-1.529-.446-.592-.408-.502-1.073-2.315-.543-1.481-1.281-2.287-2.796-2.287v3c-.021 0 0 .394 0 .394l.187.511c.1.28.188.51.287.745.27.637.585 1.208.998 1.756.844 1.122 2.025 2.046 3.637 2.768m7.858.657v15.192c.007.352-.004.74-.047 1.196a9.795 9.795 0 0 1-.383 1.981c-.189.606-.436 1.122-.735 1.525-.828 1.111-3.528 3.126-5.95 4.558-.672.397-1.812 1.044-3.287 1.868l-.105.059c-.766.427-2.46 1.354-2.46 1.354v3.456s.476-.281.58-.338a836.675 836.675 0 0 0 3.342-1.853l.106-.059a179.896 179.896 0 0 0 3.35-1.904c2.752-1.627 5.692-3.82 6.83-5.35.52-.697.909-1.513 1.193-2.42.26-.835.422-1.712.505-2.594.055-.579.07-1.078.062-1.46V46.72c0-.507-.184-1.037-.556-1.37-.1-.09-.51-.45-1.034-.45-.185 0-.665.13-1.024.45-.36.317-.387 1.37-.387 1.37v3.106z"/>
            <path d="M46.033 49.826v15.192c-.007.352.004.74.048 1.196.065.688.189 1.365.382 1.981.19.606.436 1.122.735 1.525.828 1.111 3.528 3.126 5.95 4.558.672.397 1.812 1.044 3.288 1.868l.105.059c.765.427 2.46 1.354 2.46 1.354v3.456s-.477-.281-.58-.338a836.639 836.639 0 0 1-3.342-1.853l-.106-.059a179.9 179.9 0 0 1-3.351-1.904c-2.752-1.627-5.692-3.82-6.83-5.35-.519-.697-.909-1.513-1.192-2.42a12.735 12.735 0 0 1-.506-2.594 13.055 13.055 0 0 1-.062-1.46V46.72c0-.83.493-1.618 1.49-1.716.47-.047.792.064 1.231.291.148.076 1.158.672 1.511.855 1.813.937 3.48 1.143 5.4.282 1.158-.52 1.935-1.127 2.468-1.835.445-.592.407-.502 1.072-2.315.543-1.481 1.281-2.287 2.797-2.287v3c.02 0 0 .394 0 .394l-.188.511c-.1.28-.187.51-.286.745a8.105 8.105 0 0 1-.998 1.756c-.844 1.122-2.026 2.046-3.638 2.768-2.81 1.26-5.351.978-7.858-.28v.937z"/>
        </g>
        <path d="M58.16 65.947c-.364 0-.73-.091-1.062-.277l-3.655-2.046a2.197 2.197 0 0 1-.844-2.982 2.178 2.178 0 0 1 2.97-.848l2.304 1.29 5.01-4.45a2.176 2.176 0 0 1 3.08.188 2.199 2.199 0 0 1-.188 3.095l-6.168 5.48c-.408.363-.925.55-1.447.55z"/>
    </g>
</svg>
