<svg xmlns="http://www.w3.org/2000/svg" width="62" height="78" viewBox="0 0 62 78">
    <g fill="none" fill-rule="evenodd">
        <path d="M20.894 25.169l3.016 4.844 5.505 1.392-3.642 4.386.387 5.705-5.266-2.134-5.266 2.134.387-5.705-3.641-4.386 5.505-1.392z"/>
        <g fill="#FF4100" stroke="#FFF">
            <path d="M15.629 43.727c-.461 0-.918-.145-1.302-.426a2.238 2.238 0 0 1-.908-1.957l.326-4.81-3.07-3.697a2.245 2.245 0 0 1-.408-2.121 2.221 2.221 0 0 1 1.568-1.474l4.641-1.174 2.542-4.084a2.211 2.211 0 0 1 1.876-1.046c.763 0 1.472.395 1.877 1.046l2.542 4.084 4.641 1.174c.74.187 1.331.744 1.567 1.474.235.73.081 1.532-.407 2.12l-3.07 3.699.326 4.81a2.236 2.236 0 0 1-.908 1.956 2.202 2.202 0 0 1-2.128.265l-4.44-1.799-4.44 1.8c-.266.107-.547.16-.825.16zm.71-11.024l1.375 1.657c.367.441.55 1.009.51 1.583l-.145 2.155 1.99-.806a2.2 2.2 0 0 1 1.652 0l1.99.806-.147-2.155a2.242 2.242 0 0 1 .51-1.583l1.377-1.657-2.08-.526a2.216 2.216 0 0 1-1.337-.979l-1.14-1.83-1.139 1.83a2.216 2.216 0 0 1-1.337.979l-2.08.526zM49.626 31.664H37.003a2.223 2.223 0 0 1-2.214-2.231c0-1.232.991-2.23 2.214-2.23h12.623c1.223 0 2.215.998 2.215 2.23a2.223 2.223 0 0 1-2.215 2.231zM45.195 39.463h-8.191a2.223 2.223 0 0 1-2.215-2.231c0-1.233.992-2.231 2.215-2.231h8.19c1.223 0 2.215.998 2.215 2.23a2.223 2.223 0 0 1-2.214 2.232z"/>
        </g>
        <path d="M20.894 49.28l3.016 4.844 5.505 1.392-3.642 4.386.387 5.705-5.266-2.134-5.266 2.134.387-5.705-3.641-4.386 5.505-1.392z"/>
        <g fill="#FF4100" stroke="#FFF">
            <path d="M26.16 67.838c-.279 0-.56-.053-.826-.161l-4.44-1.8-4.44 1.8a2.202 2.202 0 0 1-2.127-.265 2.237 2.237 0 0 1-.908-1.957l.326-4.81-3.07-3.698a2.245 2.245 0 0 1-.408-2.12 2.221 2.221 0 0 1 1.568-1.475l4.641-1.173 2.542-4.085a2.211 2.211 0 0 1 1.876-1.046c.763 0 1.472.395 1.877 1.046l2.542 4.085 4.641 1.173c.74.187 1.331.744 1.567 1.475.235.73.081 1.531-.407 2.12l-3.07 3.698.326 4.81a2.236 2.236 0 0 1-.908 1.957c-.384.281-.84.426-1.302.426zm-9.822-11.024l1.376 1.657c.367.441.55 1.009.51 1.583l-.145 2.155 1.99-.806a2.2 2.2 0 0 1 1.652 0l1.99.806-.147-2.155a2.242 2.242 0 0 1 .51-1.583l1.377-1.657-2.08-.526a2.216 2.216 0 0 1-1.337-.979l-1.14-1.83-1.139 1.83a2.216 2.216 0 0 1-1.337.979l-2.08.526zM49.626 55.775H37.003a2.223 2.223 0 0 1-2.214-2.231c0-1.232.991-2.231 2.214-2.231h12.623c1.223 0 2.215.999 2.215 2.23a2.223 2.223 0 0 1-2.215 2.232zM45.195 63.573h-8.191a2.223 2.223 0 0 1-2.215-2.23c0-1.233.992-2.232 2.215-2.232h8.19c1.223 0 2.215.999 2.215 2.231a2.223 2.223 0 0 1-2.214 2.231z"/>
        </g>
        <path fill="#FF4100" stroke="#FFF" d="M40.965 16.617c0 1.232.992 2.23 2.215 2.23h15.502a2.223 2.223 0 0 0 2.215-2.23V9.484a2.223 2.223 0 0 0-2.215-2.23H45.395V3.23A2.223 2.223 0 0 0 43.18 1H18.82a2.223 2.223 0 0 0-2.215 2.231v4.023H3.318a2.223 2.223 0 0 0-2.215 2.23v65.137c0 1.232.992 2.231 2.215 2.231h55.364a2.223 2.223 0 0 0 2.215-2.231V29.433a2.223 2.223 0 0 0-2.215-2.23 2.223 2.223 0 0 0-2.214 2.23V72.39H5.532V18.848h28.872a2.223 2.223 0 0 0 2.214-2.231 2.223 2.223 0 0 0-2.214-2.231h-13.37V5.462h19.931V16.617zM5.532 11.715h11.074v2.67H5.532v-2.67zm50.936 2.67H45.394v-2.67h11.074v2.67z"/>
    </g>
</svg>
