<svg xmlns="http://www.w3.org/2000/svg" width="80" height="75" viewBox="0 0 80 75">
    <g fill="#FF4100" fill-rule="evenodd">
        <path d="M74.47 41.341l-1.217-2.958a2.414 2.414 0 0 1 0-1.82l1.218-2.959a6.166 6.166 0 0 0-1.33-6.725l-2.278-2.246a2.371 2.371 0 0 1-.696-1.678V19.76c0-2.5-1.487-4.747-3.813-5.696l-2.96-1.218a2.317 2.317 0 0 1-1.28-1.282l-1.22-2.975A6.167 6.167 0 0 0 55.2 4.775h-3.196a2.371 2.371 0 0 1-1.678-.696l-2.262-2.263A6.127 6.127 0 0 0 43.696.012c-.807 0-1.614.159-2.358.475l-2.959 1.218a2.414 2.414 0 0 1-1.82 0L33.601.487a6.092 6.092 0 0 0-2.358-.475 6.193 6.193 0 0 0-4.367 1.804L24.613 4.08a2.371 2.371 0 0 1-1.677.696H19.74a6.151 6.151 0 0 0-5.696 3.813l-1.219 2.96a2.317 2.317 0 0 1-1.281 1.28l-2.96 1.22a6.167 6.167 0 0 0-3.812 5.695v3.197c0 .632-.254 1.234-.697 1.677l-2.262 2.262a6.171 6.171 0 0 0-1.345 6.725l1.218 2.959a2.414 2.414 0 0 1 0 1.82L.468 41.34a6.195 6.195 0 0 0 1.329 6.725L4.09 50.33c.443.443.696 1.044.696 1.677v3.196c0 2.5 1.488 4.747 3.814 5.696l2.958 1.219a2.317 2.317 0 0 1 1.282 1.281l1.218 2.96a6.167 6.167 0 0 0 5.697 3.813h3.196c.633 0 1.234.253 1.677.696l2.263 2.262a6.127 6.127 0 0 0 4.367 1.804c.807 0 1.614-.158 2.357-.474l2.96-1.219a2.414 2.414 0 0 1 1.819 0l2.959 1.219c.76.316 1.55.474 2.357.474.285 0 1.853-.56 3.273-1.693.295-.235-3.255-2.448-1.58-3.971.552-.502-3.972-8.152-.366-10.665.505-.352.846-2.677 1.946-3.075.352-.127 2.887 1.024 6.12.531 1.175-.18 1.471-3.912 4.278-4.584.916-.22 1.065-5.578 2.915-5.505.454.018.827-7.285 1.816-6.733.294.164 2.457-2.753 3.479-1.16.489.762.477 5.759.793 5.759.125 0-1.822 1.415-1.122 2.95.245.536-1.727 1.849-.954 2.66.772.81 5.874 2.559 5.874 2.559 0-.633.253-1.234.696-1.677l2.263-2.263a6.195 6.195 0 0 0 1.329-6.725zm-4.018 4.035l-2.263 2.263a6.1 6.1 0 0 0-1.804 4.367s-1.601-1.102-1.487-2.923c.114-1.822 1.996-6.912 1.171-9.245-1.369-3.87-3.761-.287-4.432-1.052-1.929-2.198-.6 5.989-1.34 5.83-2.51-.542-1.843 5.369-3.26 5.713-3.685.894-1.671 4.405-3.933 4.873-6.226 1.288-3.982-.55-5.437 0-6.214 2.352-2.861 4.295-3.053 4.585-.777 1.174-.27 11.349-.903 11.349-.316 0-.617-.064-.902-.174l-2.958-1.219a6.092 6.092 0 0 0-4.716 0l-2.958 1.219a2.233 2.233 0 0 1-.902.174 2.371 2.371 0 0 1-1.678-.696l-2.262-2.263a6.1 6.1 0 0 0-4.367-1.804h-3.196c-.966 0-1.82-.57-2.184-1.471l-1.218-2.96a6.165 6.165 0 0 0-3.339-3.338l-2.959-1.218a2.375 2.375 0 0 1-1.471-2.184v-3.196a6.193 6.193 0 0 0-1.804-4.367l-2.263-2.263a2.335 2.335 0 0 1-.506-2.579l1.218-2.959a6.092 6.092 0 0 0 0-4.715l-1.218-2.959a2.34 2.34 0 0 1 .522-2.579l2.263-2.263a6.127 6.127 0 0 0 1.803-4.367V19.76c0-.965.57-1.82 1.472-2.183l2.959-1.219a6.165 6.165 0 0 0 3.338-3.338l1.219-2.96a2.375 2.375 0 0 1 2.183-1.47h3.197a6.193 6.193 0 0 0 4.367-1.805l2.262-2.262a2.371 2.371 0 0 1 1.678-.696c.316 0 .617.063.901.174l2.96 1.218a6.092 6.092 0 0 0 4.714 0L42.826 4c.284-.127.6-.174.901-.174.633 0 1.234.253 1.677.696l2.263 2.262a6.127 6.127 0 0 0 4.367 1.804H55.2c.965 0 1.82.57 2.183 1.472l1.219 2.959a6.165 6.165 0 0 0 3.338 3.338l2.96 1.219a2.375 2.375 0 0 1 1.47 2.183v3.196c0 1.646.65 3.197 1.804 4.367l2.263 2.263c.68.68.886 1.693.506 2.58l-1.218 2.958a6.092 6.092 0 0 0 0 4.715l1.218 2.96c.396.885.19 1.898-.49 2.578z"/>
        <path d="M40.246 35.55h-5.522a4.166 4.166 0 0 1-4.161-4.161 4.166 4.166 0 0 1 4.161-4.161h9.747a1.904 1.904 0 0 0 1.899-1.9 1.904 1.904 0 0 0-1.9-1.898h-5.094v-3.877a1.904 1.904 0 0 0-1.899-1.898 1.904 1.904 0 0 0-1.899 1.898v3.877h-.87c-4.383 0-7.959 3.56-7.959 7.959 0 4.399 3.576 7.959 7.96 7.959h5.521a4.166 4.166 0 0 1 4.162 4.161 4.166 4.166 0 0 1-4.162 4.162h-9.92a1.904 1.904 0 0 0-1.9 1.898c0 1.045.855 1.899 1.9 1.899h5.268v3.956c0 1.044.855 1.898 1.9 1.898a1.904 1.904 0 0 0 1.898-1.898v-3.956H40.34c4.336-.063 7.848-3.608 7.848-7.959 0-4.399-3.56-7.959-7.943-7.959z"/>
        <g stroke="#FF4100">
            <path d="M77.886 61.79c.757-.99 1.12-2.054 1.073-3.149-.046-1.206-.571-2.15-1.004-2.729.502-1.285.695-3.308-.981-4.879-1.228-1.15-3.314-1.666-6.203-1.523-2.032.095-3.732.484-3.801.5h-.008c-.386.071-.796.159-1.213.254-.03-.508.054-1.77.966-4.61 1.081-3.379 1.02-5.965-.201-7.695C65.232 36.143 63.184 36 62.582 36c-.58 0-1.113.246-1.491.698-.858 1.024-.757 2.912-.65 3.784-1.019 2.809-3.877 9.695-6.295 11.607-.047.031-.085.07-.124.11a8.544 8.544 0 0 0-1.514 2.333 3.122 3.122 0 0 0-1.53-.397h-4.712c-1.777 0-3.214 1.484-3.214 3.3v12.892c0 1.825 1.445 3.3 3.214 3.3h4.712a3.15 3.15 0 0 0 1.854-.603l1.816.222c.278.04 5.222.683 10.298.58.919.07 1.784.11 2.588.11 1.383 0 2.588-.11 3.592-.333 2.364-.515 3.979-1.547 4.797-3.062.626-1.158.626-2.308.526-3.038 1.537-1.428 1.807-3.007 1.753-4.118a5.484 5.484 0 0 0-.316-1.594zm-31.62 9.695c-.626 0-1.128-.523-1.128-1.158v-12.9c0-.642.51-1.158 1.128-1.158h4.712c.626 0 1.128.524 1.128 1.159v12.891c0 .643-.51 1.158-1.128 1.158h-4.712v.008zm29.642-10.622c-.325.349-.386.88-.14 1.293 0 .008.318.563.356 1.325.054 1.039-.432 1.96-1.452 2.744-.363.286-.51.778-.355 1.222 0 .008.332 1.055-.21 2.047-.517.952-1.668 1.634-3.414 2.015-1.398.31-3.298.365-5.631.175h-.109c-4.967.11-9.988-.556-10.042-.564h-.008l-.78-.095c.046-.222.07-.46.07-.698v-12.9a3.44 3.44 0 0 0-.148-.983c.14-.532.526-1.714 1.437-2.721 3.469-2.824 6.86-12.352 7.007-12.765a1.03 1.03 0 0 0 .046-.531c-.13-.889-.085-1.976.1-2.3.41.007 1.515.126 2.18 1.07.787 1.119.756 3.118-.093 5.768-1.298 4.038-1.406 6.164-.379 7.1.51.468 1.19.492 1.684.31.471-.112.92-.207 1.344-.279.031-.007.07-.015.1-.023 2.373-.532 6.621-.857 8.097.523 1.252 1.174.363 2.73.263 2.896-.286.444-.201 1.023.185 1.38.008.008.819.794.858 1.849.03.706-.294 1.428-.966 2.142z"/>
        </g>
    </g>
</svg>
