<svg xmlns="http://www.w3.org/2000/svg" width="64" height="64" viewBox="0 0 64 64">
    <g fill="none" fill-rule="evenodd">
        <circle cx="31.995" cy="31.995" r="31.995" fill="#E72D2D"/>
        <path fill="#E72D2D" d="M0 0h64v64H0z"/>
        <path fill="#FFF" d="M33.677 38.462c.286 0 .533.104.741.312.208.208.312.455.312.741v3.432c0 .286-.104.533-.312.741a1.012 1.012 0 0 1-.741.312h-3.354c-.286 0-.533-.104-.741-.312a1.012 1.012 0 0 1-.312-.741v-3.432c0-.286.104-.533.312-.741.208-.208.455-.312.741-.312h3.354zm.858-3.393c0 .286-.104.533-.312.741a1.012 1.012 0 0 1-.741.312h-2.964c-.286 0-.533-.104-.741-.312a1.012 1.012 0 0 1-.312-.741V17.753c0-.286.104-.533.312-.741.208-.208.455-.312.741-.312h2.964c.286 0 .533.104.741.312.208.208.312.455.312.741v17.316z"/>
    </g>
</svg>
