<svg xmlns="http://www.w3.org/2000/svg" width="115" height="54" viewBox="0 0 115 54">
    <g fill="#FFF" fill-rule="evenodd">
        <path d="M17.336 11.157c0 .409-.071.828-.213 1.258-.506 1.432-1.67 2.445-3.494 3.039.486.061.952.153 1.398.276 2.45.655 3.676 2.118 3.676 4.389a4.786 4.786 0 0 1-.911 2.824c-1.236 1.657-3.241 2.486-6.016 2.486H1.386v-.83h2.43V7.843h-2.43v-.829h9.843c1.114 0 2.107.123 2.978.369 2.086.614 3.129 1.872 3.129 3.775zM9.528 7.842H8.069v7.182h1.702c.364 0 .709-.04 1.033-.123 1.418-.409 2.127-1.575 2.127-3.499-.02-2.332-1.155-3.519-3.403-3.56zm1.033 8.041H8.069V24.6h2.036c.263 0 .527-.02.79-.061 2.106-.307 3.16-1.852 3.16-4.635 0-.614-.091-1.187-.274-1.719-.526-1.534-1.6-2.302-3.22-2.302zm17.105 8.748h-1.52V5.479h-6.228v.798h2.37v16.696c0 .84-.334 1.35-1.002 1.535-.345.082-.8.123-1.368.123v.798h8.477c0-.471-.132-.727-.395-.768a1.69 1.69 0 0 0-.334-.03zm17.014 0h-1.033v-12.4h-5.348v.798h1.49l-.031 7.734c-.142 1.596-.72 2.65-1.732 3.162a2.121 2.121 0 0 1-.911.215c-1.155 0-1.833-.686-2.036-2.057a5.5 5.5 0 0 1-.06-.829v-9.023h-5.621v.798h1.762v7.704c.04 3.314 1.488 4.982 4.344 5.002 1.823 0 3.21-.818 4.163-2.455l.182-.368.152 2.517h5.408c0-.45-.122-.706-.365-.768a1.869 1.869 0 0 0-.364-.03zm9.054-12.062c-1.62.061-2.502 1.79-2.644 5.187l1.945.092c.81.04 1.418-.01 1.823-.154.567-.225.85-.818.85-1.78-.02-2.19-.678-3.304-1.974-3.345zm5.68 9.698a4.686 4.686 0 0 1-.485.952c-1.033 1.678-2.735 2.516-5.104 2.516-1.337 0-2.532-.276-3.585-.828-2.208-1.166-3.312-3.233-3.312-6.2 0-1.821.486-3.345 1.458-4.573 1.276-1.576 3.059-2.363 5.348-2.363 1.255 0 2.38.214 3.372.644 1.762.798 2.643 2.067 2.643 3.806 0 .348-.06.665-.182.951-.527 1.146-2.42 1.668-5.682 1.566l-2.795-.092c.02 1.186.122 2.21.304 3.069.466 2.087 1.51 3.13 3.13 3.13a4.17 4.17 0 0 0 1.488-.276c1.215-.45 2.107-1.3 2.674-2.547l.729.245zm8.234-9.238v-.798H60.63v.798h1.276l3.525 10.313c.425 1.227.85 1.933 1.276 2.117.202.082.455.123.76.123h1.002l2.825-8.87 2.249 6.63c.405 1.166.739 1.841 1.002 2.025.223.143.537.215.942.215h1.003l3.797-11.663c.365-.552.75-.85 1.155-.89.364 0 .557-.164.577-.491.02-.102.03-.205.03-.307h-4.314v.798h1.884l-2.826 8.962-2.977-8.962h1.823v-.798h-5.894l1.033 3.07-2.005 6.66-2.947-8.932h1.822zm26.19 12.706c-1.62-.102-2.644-1.033-3.069-2.792a4.425 4.425 0 0 1-.395.828c-.81 1.31-2.076 1.964-3.798 1.964a5.258 5.258 0 0 1-1.55-.214c-1.579-.512-2.369-1.678-2.369-3.5.02-2.68 2.633-4.071 7.839-4.173v-1.995a8.4 8.4 0 0 0-.122-1.535c-.202-1.166-.78-1.75-1.732-1.75a1.8 1.8 0 0 0-.76.154c-.344.205-.627.716-.85 1.535-.08.286-.142.49-.182.614-.304.859-.891 1.289-1.762 1.289-.203 0-.395-.031-.578-.092-.749-.205-1.124-.706-1.124-1.504 0-.348.091-.676.274-.983.709-1.207 2.44-1.81 5.195-1.81.709 0 1.367.071 1.975.214 2.35.594 3.524 2.17 3.524 4.727v6.415c0 .982.223 1.493.669 1.534.587-.02.941-.736 1.063-2.148l.79.03c-.06.635-.152 1.157-.274 1.566-.364 1.084-1.286 1.626-2.764 1.626zm-5.682-1.32c.142 0 .304-.03.486-.091.851-.328 1.469-1.208 1.854-2.64v-2.977c-.912.041-1.661.153-2.249.338-1.093.409-1.64 1.289-1.64 2.64.02 1.78.537 2.69 1.55 2.73zm12.821 5.924c-.364 0-.658-.276-.88-.828-.284-.717-.537-1.167-.76-1.35a1.55 1.55 0 0 0-.912-.277c-.729 0-1.195.317-1.397.951-.04.164-.061.318-.061.46 0 .676.405 1.228 1.215 1.658.567.307 1.226.46 1.975.46 1.702 0 3.11-.992 4.223-2.977.426-.716.83-1.585 1.215-2.608l4.558-11.94c.344-.552.678-.849 1.002-.89.446 0 .689-.153.73-.46.02-.102.03-.205.03-.307h-4.71v.767h2.28l-3.312 8.563-3.676-8.563h1.853v-.767h-7.14v.767h1.276l5.925 13.075c-.973 2.435-1.904 3.816-2.796 4.144a1.85 1.85 0 0 1-.638.122zM7.856 47.429l3.733-10.804h-1.4l-3.092 9.448-3.053-9.448H2.508l3.734 10.804h1.614zM19.93 36.625h1.555l3.675 10.804h-1.439l-1.01-3.163h-4.084l-1.011 3.163h-1.342l3.656-10.804zm-.934 6.521h3.345L20.65 37.98l-1.653 5.166zm13.164 4.283v-9.095l5.833 9.095h1.653V36.625h-1.322v9.055l-5.814-9.055h-1.633v10.804h1.283zm28.72 0v-1.14h-4.803v-9.664h-1.284v10.804h6.087zm7.33 0V36.625h-1.264v10.804h1.264zm8.186 0v-9.095l5.834 9.095h1.652V36.625h-1.322v9.055l-5.814-9.055h-1.633v10.804h1.283zm20.417-1.14h-4.978V42.4h4.589v-1.12h-4.589v-3.555h4.978v-1.1h-6.261v10.804h6.26v-1.14zm9.294-.039c.778 0 1.426-.14 1.945-.422.518-.282.778-.698.778-1.248 0-.484-.208-.87-.623-1.159-.414-.288-1.01-.576-1.789-.864l-.447-.177c-.972-.393-1.698-.798-2.178-1.218-.48-.419-.719-1.001-.719-1.748 0-.982.318-1.722.953-2.22a3.686 3.686 0 0 1 1.186-.618c.415-.125.9-.187 1.458-.187.791 0 1.77.25 2.936.747l-.37 1.159c-1.036-.42-1.84-.629-2.41-.629-.752 0-1.345.14-1.78.422-.434.282-.65.678-.65 1.189 0 .353.113.655.34.903.226.25.48.442.758.58.279.137.67.31 1.176.52.208.092.396.164.564.216.674.275 1.202.521 1.585.737.382.216.71.507.982.874s.408.832.408 1.395c0 1.008-.402 1.774-1.205 2.298-.804.524-1.783.786-2.937.786-.596 0-1.088-.053-1.477-.157a28.705 28.705 0 0 1-1.77-.57l.447-1.257c1.141.432 2.087.648 2.84.648z"/>
    </g>
</svg>
