<svg xmlns="http://www.w3.org/2000/svg" width="13" height="13" viewBox="0 0 13 13">
    <path fill="#FF4100" fill-rule="nonzero" d="M12.694 10.097c-.033-.102-.25-.252-.647-.451a19.893 19.893 0 0 0-.46-.256c-.2-.108-.38-.207-.541-.298a18.08 18.08 0 0 1-.457-.264 11.194 11.194 0 0 0-.213-.15 2.395 2.395 0 0 0-.302-.183.558.558 0 0 0-.243-.06c-.114 0-.256.082-.426.243a4.15 4.15 0 0 0-.469.529c-.142.19-.292.366-.451.528-.16.162-.29.243-.392.243a.58.58 0 0 1-.192-.042 1.988 1.988 0 0 1-.175-.073c-.04-.02-.108-.06-.205-.12a5.263 5.263 0 0 0-.162-.097 8.957 8.957 0 0 1-2.003-1.483A8.951 8.951 0 0 1 3.874 6.16a4.937 4.937 0 0 0-.099-.162c-.06-.096-.099-.165-.119-.204a1.847 1.847 0 0 1-.072-.175.577.577 0 0 1-.043-.192c0-.102.081-.233.243-.392.162-.159.338-.31.528-.452.19-.141.367-.298.529-.468.162-.17.243-.313.243-.426 0-.08-.02-.16-.06-.243a2.37 2.37 0 0 0-.183-.303c-.083-.12-.132-.19-.15-.213a18.72 18.72 0 0 1-.264-.456c-.09-.162-.19-.342-.298-.54a20.265 20.265 0 0 0-.256-.461c-.198-.398-.349-.614-.451-.648A.477.477 0 0 0 3.242.8c-.153 0-.353.028-.6.085a3.375 3.375 0 0 0-.584.179c-.284.12-.585.466-.903 1.04C.865 2.636.72 3.165.72 3.688a3.291 3.291 0 0 0 .136.937c.052.182.093.317.124.405.031.088.09.246.175.473.085.227.136.366.153.417a7.72 7.72 0 0 0 .707 1.492c.45.727 1.061 1.479 1.837 2.254.776.776 1.527 1.388 2.254 1.837.438.273.935.508 1.492.707.051.017.19.068.417.154.228.085.385.143.473.174.088.032.224.073.405.124.182.051.345.087.49.107.145.02.295.03.448.03.522 0 1.051-.145 1.585-.435.574-.318.92-.62 1.04-.904.062-.141.122-.336.179-.583.057-.247.085-.448.085-.601 0-.08-.008-.14-.026-.18z"/>
</svg>
